<?xml version="1.0" encoding="utf-8"?>
<!-- Generator: Adobe Illustrator 20.0.0, SVG Export Plug-In . SVG Version: 6.00 Build 0)  -->
<svg version="1.1" id="Calque_1" xmlns="http://www.w3.org/2000/svg" xmlns:xlink="http://www.w3.org/1999/xlink" x="0px" y="0px"
	 viewBox="0 0 110.2 174.4" enable-background="new 0 0 110.2 174.4" xml:space="preserve">
<g>
	<path fill="none" d="M0,0c36.8,0,73.5,0,110.2,0c0,58.1,0,116.3,0,174.4c-36.7,0-73.5,0-110.2,0C0,116.3,0,58.2,0,0z M56.6,126
		L56.6,126c-0.1,1.3,0.8,1.8,1.9,1.9c2.1,0.2,4.3,0.6,5.3-1.8c1,0.6,1.8,1.6,2.7,1.6c1.7,0,2.4,1,3.2,2.2c-2.2,0.5-4.4,1.1-6.6,1.6
		c-1.5,0.3-1.9,1-1.8,2.4c0.1,2.3,0,4.6,0,6.8c-2.2,0-4.1,0-6,0c-6.9,0-11.2,3.7-12.2,10.5c-0.3,1.9-0.3,3.9,0,5.9
		c0.5,3.8,2.7,6.3,6.4,7.4c3.6,1,7.1,0.5,10.5-1.1c0.6-0.3,1.7-0.5,2.1-0.2c2.3,2.2,4.9,1,7.5,1.3c0-11.7,0-23.2,0-34.7
		c2.4,2,4.1,2.2,6,0.7c-0.9-0.4-1.8-0.6-2.5-1c-0.7-0.5-1.3-1.1-2-1.7c2.1-2.2,2.7-4.9,1.7-7.1c-0.8-1.8-2.4-2.6-4.9-2.3
		c-1.1,0.1-2.4,0.5-3.1,1.3c-0.8,0.8-1,2.1-1.5,3.3c-1-1.2-3.2-0.7-3.6-2.8c3.5-0.4,3.5-0.4,3.4-1.6c-2.4-0.4-4.8-0.7-6.4,1.8
		c-2-1.9-4.9-2.6-7.3-1.6c-1.9,0.8-2.3,2.3-2.3,4.1c-0.1,2.7,0.7,4.1,2.5,4.8C52.2,128.6,55,127.9,56.6,126z M23.3,78.2
		c-1.2,1-2.1,1.9-3.3,2.7c-1.4,0.9-1.8,2.1-1.8,3.8c0.1,24.4,0,48.8,0,73.2c0,3.8,1.3,5.8,5.1,6.2c6,0.5,12,0.5,18.1,0.7
		c0-8,0-15.7,0-23.4c-2.4,0-4.8,0-7.3,0c0,5.9,0,11.7,0,17.5c-3.5,0-6.8,0-10.1,0c0-0.5-0.1-0.8-0.1-1.1c0-24.1,0-48.2,0-72.2
		c0-1.2,2.4-3.8,3.5-3.7c1,0,3.1,2.6,3.1,3.8c0,7.3,0.1,14.7,0.1,22c0,1.5,0,3,0,4.6c21.5,0,42.9,0,64.5,0c0-4.2-0.1-8.2,0-12.3
		c0.2-5.5-2-9.9-5.8-13.7c-4.9-4.7-10.9-7.7-17-10.4c-1.1-0.5-2.3-1-3.6-1.6c3.6-1.8,3.7-4.1,0.6-6.6c1.9-1.4,1.4-3.1,0.2-4.7
		c3-1.3,3.9-2.7,3.2-5.1c-0.4,2.2-1.7,3.2-3.7,3.2c-1.7,0-3.2-0.3-3.9-2c-1-2.4,0-4.1,2.2-5.5c-2.7,0.1-4.3,1.1-4.7,3.1
		c-0.2,1.1-0.3,2.5,0.2,3.4c0.7,1.3,2,2.2,3.1,3.2c-1.3,1.7-1.3,2.6,0.1,4.1c-0.6,1.4-1.5,2.7-1.4,3.8c0.1,1.2,1.3,2.2,1.8,2.8
		c-5.4,3.1-11.1,6-16.5,9.6c-6.1,4.1-9.8,9.8-9.2,17.6c0.2,2,0,4.1,0,6.1c0,1.1-0.3,1.6-1.4,1.6c-1,0-2,0-3.1,0c0-8.4,0-16.5,0-24.5
		c0-1.5-0.4-2.6-1.7-3.5c-1.2-0.8-2.2-1.8-3.4-2.8c2.4-1.9,4.6-3.5,6.7-5.3c0.6-0.6,1.1-1.6,1.1-2.4c0.1-2.9,0.2-5.9,0-8.9
		c0-0.9-0.6-2-1.3-2.6c-2-1.8-4.3-3.4-6.1-4.9c1.6-1.7,3.6-3.1,4.3-5c0.7-2,0.3-4.4,0.2-6.6c-0.1-2.3,1-3.9,2.8-5.1
		c0.5-0.3,0.9-0.6,1.6-1c-4-3.4-7.8-6.6-11.7-9.8c3.1-2.2,3.1-4.3,0.2-6.7c1.7-2.1,1.7-2.6-0.1-4.8c3.2-0.9,4-1.8,4.2-4.8
		c-2,2.8-3.9,3.6-6.7,2.7c-1.6-0.5-2.6-1.4-2.4-3.1c0.1-0.9,0.5-2,1.2-2.7C25.9,6.6,27,6.4,27.9,6c-3.6-0.3-5.7,0.8-6.2,3.3
		c-0.6,3,0.5,4.7,4.1,5.8c-1.9,2.2-1.9,2.6-0.3,4.6c-0.7,1.4-1.6,2.6-1.6,3.7c0,1.2,1.1,2.3,1.8,3.6C22,30,18,33.1,14,36.4
		c0.5,0.4,0.8,0.6,1,0.7c2.3,1.2,3.5,3,3.3,5.7c-0.1,1.6,0.1,3.2-0.1,4.7c-0.1,1.4,0.4,2.2,1.4,3c1.2,0.9,2.3,1.8,3.7,2.9
		c-2.4,2-4.7,3.7-6.8,5.6c-0.6,0.5-1,1.5-1.1,2.3c-0.1,2.9-0.1,5.9,0,8.9c0,0.8,0.5,1.8,1.1,2.3C18.7,74.5,20.9,76.2,23.3,78.2z
		 M100.7,161.3c-5.2,0.2-5.5-0.1-5.5-4.8c0-3.2,0-6.4,0-9.6c0-3.7-1.8-5.7-5.6-6c-4.6-0.5-9,0.3-13.3,1.8c-1,0.3-1.9,0.7-2.7,1
		c0.3,2.1,1.1,2.9,3.1,2.1c1.3-0.5,2.8-0.6,4.2-0.8c5.1-0.5,6.2,0.6,5.7,5.8c0,0.1-0.1,0.2-0.3,0.5c-0.9,0-2-0.1-3,0
		c-3,0.4-6,0.5-8.8,1.4c-3.1,1-4.4,4.2-3.8,7.6c0.5,2.6,2.7,4.6,5.8,4.6c2.8-0.1,5.7-0.6,8.4-1.3c1.6-0.4,2.9-1.2,4.2,0.5
		c0.4,0.4,1.2,0.6,1.8,0.7c3.1,0.5,6-0.2,8.7-1.6C100.1,162.9,100.2,162.1,100.7,161.3z M38.3,121.5c-1.1-2.2-2-4.1-2.9-6
		c-0.8-1.7-2.2-1.1-3.4-1c-0.6,0-1.5,0.7-1.6,1.2c-0.5,4-0.9,8-1.3,12.2c1.3,0,2.4,0,3.6,0c0.2-1.8,0.4-3.5,0.6-5.3
		c1.1,1.5,1.7,3,2.6,4.4c0.3,0.5,1.2,0.9,1.8,0.9c0.6,0,1.5-0.4,1.8-1c0.9-1.6,1.6-3.2,2.6-5.4c0.3,2.5,0.6,4.4,0.8,6.3
		c1.5,0,2.9,0,4.4,0c-0.4-3.8-0.8-7.5-1.2-11.2c-0.1-0.9,0.3-2.2-1.3-2.2c-1.4,0-3-0.6-3.8,1.4C40.3,117.7,39.3,119.4,38.3,121.5z
		 M89.8,118.5c0,2.8,0,5.3,0,8c-1.4-0.1-2.5-0.1-3.6-0.2c0-1,0-1.8,0-2.4c0.8-0.9,2.6,0.5,2.9-1.5c-1.1-0.1-2-0.2-2.8-0.3
		c0-0.8,0-1.5,0-2.2c0.8,0,1.5,0,2.2-0.1c0.3-0.1,0.6-0.4,0.8-0.6c-0.3-0.2-0.6-0.7-0.9-0.7c-1.6-0.1-3.2,0-4.8,0c0,3.3,0,6.3,0,9.4
		c3.9,0,7.7,0,11.5,0c0.3,0,0.6-0.5,0.9-0.7c-0.3-0.2-0.6-0.6-0.9-0.7c-0.8-0.1-1.6-0.1-2.5-0.2c0-1,0-1.7,0-2.5
		c1.1-0.2,2.1-0.5,3.1-0.7c0-0.2-0.1-0.5-0.1-0.7c-0.9-0.1-1.9-0.2-2.9-0.3c0-0.8,0-1.4,0-2.3c0.8,0,1.6,0.1,2.3,0
		c0.3-0.1,0.6-0.5,0.9-0.8c-0.3-0.2-0.6-0.5-0.9-0.5C93.3,118.5,91.8,118.5,89.8,118.5z M74,118.6c0,2.3-0.2,4.5,0.1,6.7
		c0.1,0.9,1.2,2,2.1,2.4c1,0.4,2.3,0.4,3.5,0.2c1.4-0.3,2.5-1.2,2.6-2.8c0.1-2.1,0-4.3,0-6.5c-0.9,0-1.6,0-2.4,0c0,2.1,0,4,0,6
		c0,1.1-0.4,1.9-1.7,2c-1.4,0-1.5-0.9-1.5-2c0-1.9,0-3.9,0-5.9C75.6,118.6,74.9,118.6,74,118.6z M33.2,134c1.6,1.7,3.1,3.2,4.4,4.5
		c1.7-1.5,3.3-2.9,4.6-4.2c-1.6-1.7-3.1-3.2-4.6-4.8C36.2,131,34.7,132.5,33.2,134z M87.3,114.4c-0.9,1.1-1.6,1.9-2.3,2.7
		c1.2,1.2,1.5,1.1,3.6-1.3C88.2,115.4,87.9,115,87.3,114.4z"/>
	<path fill="#fff" d="M23.3,78.2c-2.4-2-4.7-3.7-6.8-5.7c-0.6-0.5-1-1.5-1.1-2.3c-0.1-2.9-0.1-5.9,0-8.9c0-0.8,0.5-1.8,1.1-2.3
		c2.1-1.9,4.4-3.6,6.8-5.6c-1.4-1.1-2.5-2.1-3.7-2.9c-1-0.8-1.6-1.6-1.4-3c0.2-1.6-0.1-3.2,0.1-4.7c0.2-2.7-1-4.5-3.3-5.7
		c-0.3-0.1-0.5-0.4-1-0.7c4-3.3,8-6.5,11.6-9.5c-0.7-1.3-1.8-2.4-1.8-3.6c0-1.1,0.9-2.3,1.6-3.7c-1.5-2-1.5-2.4,0.3-4.6
		c-3.5-1.1-4.7-2.7-4.1-5.8c0.5-2.5,2.6-3.6,6.2-3.3c-0.9,0.4-2,0.6-2.6,1.2c-0.6,0.7-1.1,1.8-1.2,2.7c-0.2,1.7,0.9,2.6,2.4,3.1
		c2.8,0.9,4.7,0.1,6.7-2.7c-0.2,2.9-1,3.9-4.2,4.8c1.8,2.3,1.8,2.7,0.1,4.8c2.9,2.3,2.9,4.4-0.2,6.7c3.9,3.3,7.7,6.5,11.7,9.8
		c-0.6,0.4-1.1,0.7-1.6,1c-1.8,1.2-2.9,2.7-2.8,5.1c0.1,2.2,0.6,4.7-0.2,6.6c-0.7,1.9-2.8,3.3-4.3,5c1.8,1.4,4.1,3.1,6.1,4.9
		c0.7,0.6,1.2,1.7,1.3,2.6c0.2,2.9,0.1,5.9,0,8.9c0,0.8-0.5,1.9-1.1,2.4c-2.1,1.8-4.3,3.4-6.7,5.3c1.2,1,2.2,2,3.4,2.8
		c1.3,0.9,1.7,1.9,1.7,3.5c-0.1,8.1,0,16.1,0,24.5c1.1,0,2.1,0,3.1,0c1.1,0,1.5-0.5,1.4-1.6c-0.1-2,0.1-4.1,0-6.1
		C40.2,93.5,44,87.9,50,83.8c5.3-3.6,11.1-6.5,16.5-9.6c-0.4-0.7-1.6-1.7-1.8-2.8c-0.1-1.1,0.8-2.3,1.4-3.8
		c-1.3-1.5-1.4-2.4-0.1-4.1c-1.1-1.1-2.4-2-3.1-3.2c-0.5-0.9-0.4-2.3-0.2-3.4c0.4-2,2-3,4.7-3.1c-2.2,1.4-3.2,3.1-2.2,5.5
		c0.7,1.7,2.2,2,3.9,2c2.1,0,3.3-1,3.7-3.2c0.7,2.3-0.3,3.8-3.2,5.1c1.2,1.6,1.7,3.3-0.2,4.7c3.1,2.4,2.9,4.7-0.6,6.6
		c1.4,0.6,2.5,1.1,3.6,1.6c6.2,2.7,12.1,5.6,17,10.4c3.8,3.7,6.1,8.1,5.8,13.7c-0.2,4,0,8.1,0,12.3c-21.6,0-42.9,0-64.5,0
		c0-1.6,0-3.1,0-4.6c0-7.3-0.1-14.7-0.1-22c0-1.2-2.1-3.8-3.1-3.8c-1,0-3.5,2.5-3.5,3.7c0,24.1,0,48.2,0,72.2c0,0.3,0,0.6,0.1,1.1
		c3.3,0,6.6,0,10.1,0c0-5.8,0-11.6,0-17.5c2.5,0,4.9,0,7.3,0c0,7.7,0,15.4,0,23.4c-6.1-0.2-12.1-0.2-18.1-0.7
		c-3.8-0.3-5.1-2.3-5.1-6.2c0-24.4,0-48.8,0-73.2c0-1.7,0.4-2.9,1.8-3.8C21.2,80.1,22.2,79.2,23.3,78.2z M89.7,108.9
		c0-2.9-0.2-5.5,0-8.1c0.4-5.3-2-9.2-5.9-12.4c-4.6-3.8-9.8-6.5-15.2-8.8c-0.4-0.2-1.1,0-1.6,0.2c-4,2.1-8,4.2-11.8,6.6
		c-3.6,2.2-7.3,4.9-8.2,9.2c-0.9,4.3-0.6,8.9-0.9,13.4C61,108.9,75.3,108.9,89.7,108.9z M27.2,74.8c1.8-1.5,3.4-2.7,5-4.2
		c0.5-0.5,0.9-1.3,1-2c0.1-2,0.1-3.9,0-5.9c0-0.6-0.3-1.3-0.7-1.7c-1.3-1.3-2.7-2.5-4.2-3.6c-0.4-0.3-1.2-0.3-1.6,0
		c-1.5,1.1-2.9,2.2-4.3,3.4c-1.2,1-1.3,8.7-0.2,9.8c0,0,0.1,0.1,0.2,0.1C23.9,72.2,25.5,73.5,27.2,74.8z M27.4,33.6
		C24,35.9,24,35.9,24,39.4c0,1.7,0.2,3.4,0,5.1c-0.4,2.8,0.7,4.6,3.2,5.7c2.5-1.2,4-3,3.5-6c-0.2-1.5-0.2-3.2,0-4.7
		C31,36.7,30.1,34.8,27.4,33.6z"/>
	<path fill="#fff" d="M69.7,129.9c0,11.5,0,22.9,0,34.7c-2.6-0.3-5.2,0.9-7.5-1.3c-0.3-0.3-1.5-0.1-2.1,0.2
		c-3.4,1.5-6.9,2.1-10.5,1.1c-3.7-1-5.9-3.5-6.4-7.4c-0.2-1.9-0.2-3.9,0-5.9c1-6.9,5.3-10.5,12.2-10.5c1.9,0,3.8,0,6,0
		c0-2.2,0.1-4.5,0-6.8c-0.1-1.4,0.3-2.2,1.8-2.4C65.3,131,67.5,130.4,69.7,129.9L69.7,129.9z M61.3,160.4c0-4.8,0-9.6-0.1-14.4
		c0-0.4-0.7-1.1-1.1-1.2c-1.9-0.1-3.8-0.1-5.7,0c-1.4,0.1-2.5,1-2.8,2.4c-0.4,2.2-0.8,4.4-0.9,6.6c-0.1,6.4,2.7,8.5,8.9,7
		C60.2,160.8,60.6,160.6,61.3,160.4z"/>
	<path fill="#fff" d="M100.7,161.3c-0.4,0.8-0.6,1.5-1,1.7c-2.7,1.4-5.6,2.2-8.7,1.6c-0.6-0.1-1.4-0.3-1.8-0.7
		c-1.3-1.7-2.6-0.9-4.2-0.5c-2.7,0.7-5.6,1.3-8.4,1.3c-3.2,0.1-5.4-2-5.8-4.6c-0.6-3.4,0.8-6.6,3.8-7.6c2.8-0.9,5.9-1,8.8-1.4
		c1-0.1,2.1,0,3,0c0.2-0.3,0.3-0.4,0.3-0.5c0.5-5.1-0.7-6.3-5.7-5.8c-1.4,0.2-2.9,0.2-4.2,0.8c-2,0.8-2.8,0-3.1-2.1
		c0.9-0.3,1.8-0.7,2.7-1c4.3-1.5,8.7-2.3,13.3-1.8c3.7,0.4,5.5,2.3,5.6,6c0,3.2,0,6.4,0,9.6C95.2,161.3,95.5,161.6,100.7,161.3z
		 M86.6,153.8c-1,0-1.8,0.1-2.6,0.1c-3.8,0.2-4.4,0.7-4.2,4.4c0.1,1,0.8,2.8,1.4,2.8c1.8,0.1,3.7-0.3,5.5-0.6c0.1,0,0.2-0.5,0.2-0.7
		C86.8,157.9,86.7,155.9,86.6,153.8z"/>
	<path fill="#fff" d="M69.7,129.9c-0.8-1.1-1.5-2.1-3.2-2.2c-0.9,0-1.7-1-2.7-1.6c-1,2.4-3.2,1.9-5.3,1.8c-1.1-0.1-2-0.6-2-1.9
		c0.9,0.1,1.8,0.2,2.8,0.2c0.6,0,1.2-0.2,1.8-0.3c-0.3-0.5-0.5-1.2-1-1.4c-0.9-0.6-1.9-0.9-2.8-1.3c-0.3,1.1-0.5,2-0.7,2.9
		c-1.6,1.9-4.4,2.6-6.9,1.7c-1.9-0.7-2.6-2.1-2.5-4.8c0-1.8,0.5-3.4,2.3-4.1c2.4-1,5.3-0.3,7.3,1.6c1.6-2.5,4-2.1,6.4-1.8
		c0.1,1.2,0.1,1.2-3.4,1.6c0.4,2.1,2.6,1.6,3.6,2.8c0.5-1.2,0.7-2.5,1.5-3.3c0.7-0.7,2-1.1,3.1-1.3c2.5-0.3,4.1,0.5,4.9,2.3
		c1,2.3,0.4,5-1.7,7.1c0.7,0.6,1.3,1.3,2,1.7c0.7,0.4,1.6,0.6,2.5,1C73.8,132.1,72.1,131.8,69.7,129.9
		C69.7,129.9,69.7,129.9,69.7,129.9z M70.9,123.2c-0.6-1.1-1.1-2.2-2-3.1c-0.2-0.2-1.6,0.1-2,0.5c-0.8,1-0.5,4.5,0.4,5.2
		c0.5,0.4,1.8,0.6,2.1,0.3C70.1,125.5,70.3,124.4,70.9,123.2z M54,123.2c-0.2-0.6-0.3-1.6-0.7-2.4c-0.6-1.1-2.4-1.1-2.5,0
		c-0.2,1.6,0,3.3,0.3,4.9c0,0.3,1,0.7,1.4,0.7c0.4,0,0.9-0.6,1.2-1C53.9,124.8,53.9,124.1,54,123.2z"/>
	<path fill="#fff" d="M38.3,121.5c1-2.1,1.9-3.8,2.6-5.7c0.8-2,2.4-1.4,3.8-1.4c1.5,0,1.2,1.3,1.3,2.2c0.4,3.7,0.8,7.4,1.2,11.2
		c-1.5,0-2.8,0-4.4,0c-0.2-1.9-0.5-3.8-0.8-6.3c-1,2.1-1.7,3.8-2.6,5.4c-0.3,0.5-1.2,1-1.8,1c-0.6,0-1.5-0.4-1.8-0.9
		c-0.8-1.4-1.5-2.9-2.6-4.4c-0.2,1.7-0.4,3.5-0.6,5.3c-1.2,0-2.2,0-3.6,0c0.4-4.2,0.8-8.2,1.3-12.2c0.1-0.5,1-1.2,1.6-1.2
		c1.2,0,2.7-0.7,3.4,1C36.3,117.4,37.3,119.3,38.3,121.5z"/>
	<path fill="#fff" d="M89.8,118.5c1.9,0,3.5,0,5.1,0c0.3,0,0.6,0.3,0.9,0.5c-0.3,0.3-0.5,0.7-0.9,0.8c-0.7,0.1-1.4,0-2.3,0
		c0,0.9,0,1.5,0,2.3c1,0.1,1.9,0.2,2.9,0.3c0,0.2,0.1,0.5,0.1,0.7c-1,0.2-2,0.4-3.1,0.7c0,0.7,0,1.5,0,2.5c0.8,0,1.7,0,2.5,0.2
		c0.3,0.1,0.6,0.5,0.9,0.7c-0.3,0.2-0.6,0.7-0.9,0.7c-3.8,0-7.6,0-11.5,0c0-3.2,0-6.1,0-9.4c1.6,0,3.2,0,4.8,0
		c0.3,0,0.6,0.4,0.9,0.7c-0.3,0.2-0.5,0.5-0.8,0.6c-0.7,0.1-1.4,0.1-2.2,0.1c0,0.7,0,1.4,0,2.2c0.9,0.1,1.7,0.2,2.8,0.3
		c-0.2,2.1-2.1,0.7-2.9,1.5c0,0.6,0,1.4,0,2.4c1.1,0,2.2,0.1,3.6,0.2C89.8,123.8,89.8,121.2,89.8,118.5z"/>
	<path fill="#fff" d="M74,118.6c0.9,0,1.7,0,2.6,0c0,2,0,4,0,5.9c0,1.1,0.2,2,1.5,2c1.3,0,1.7-0.8,1.7-2c0-1.9,0-3.9,0-6
		c0.9,0,1.5,0,2.4,0c0,2.2,0.1,4.3,0,6.5c-0.1,1.6-1.2,2.5-2.6,2.8c-1.1,0.2-2.5,0.3-3.5-0.2c-0.9-0.4-2-1.5-2.1-2.4
		C73.8,123.1,74,120.9,74,118.6z"/>
	<path fill="#fff" d="M33.2,134c1.5-1.5,3-3,4.4-4.4c1.5,1.6,3,3.1,4.6,4.8c-1.4,1.2-3,2.7-4.6,4.2
		C36.3,137.3,34.8,135.7,33.2,134z"/>
	<path fill="#fff" d="M87.3,114.4c0.6,0.6,0.9,1,1.3,1.4c-2.1,2.4-2.4,2.5-3.6,1.3C85.7,116.3,86.4,115.4,87.3,114.4z"/>
	<path fill="none" d="M89.7,108.9c-14.5,0-28.8,0-43.6,0c0.3-4.5,0-9.1,0.9-13.4c0.9-4.3,4.6-6.9,8.2-9.2c3.8-2.4,7.9-4.4,11.8-6.6
		c0.4-0.2,1.2-0.4,1.6-0.2c5.4,2.4,10.7,5,15.2,8.8c3.9,3.2,6.3,7.1,5.9,12.4C89.6,103.4,89.7,106,89.7,108.9z"/>
	<path fill="none" d="M27.2,74.8c-1.7-1.4-3.2-2.6-4.8-3.9c-0.1,0-0.1-0.1-0.2-0.1c-1.1-1.1-1-8.8,0.2-9.8c1.4-1.2,2.8-2.4,4.3-3.4
		c0.4-0.3,1.3-0.2,1.6,0c1.5,1.1,2.8,2.3,4.2,3.6c0.4,0.4,0.7,1.1,0.7,1.7c0.1,2,0.1,3.9,0,5.9c0,0.7-0.5,1.5-1,2
		C30.6,72.1,29,73.4,27.2,74.8z"/>
	<path fill="none" d="M27.4,33.6c2.7,1.2,3.6,3.2,3.3,5.9c-0.2,1.5-0.2,3.2,0,4.7c0.5,3-1,4.8-3.5,6c-2.4-1.1-3.6-2.9-3.2-5.7
		c0.2-1.7,0-3.4,0-5.1C24,35.9,24,35.9,27.4,33.6z"/>
	<path fill="none" d="M61.3,160.4c-0.6,0.2-1.1,0.4-1.6,0.5c-6.2,1.5-9-0.7-8.9-7c0-2.2,0.5-4.4,0.9-6.6c0.3-1.4,1.3-2.3,2.8-2.4
		c1.9-0.1,3.8-0.1,5.7,0c0.4,0,1.1,0.8,1.1,1.2C61.3,150.8,61.3,155.6,61.3,160.4z"/>
	<path fill="none" d="M86.6,153.8c0.1,2.1,0.2,4.1,0.3,6c0,0.2-0.1,0.7-0.2,0.7c-1.8,0.3-3.7,0.8-5.5,0.6c-0.5,0-1.3-1.8-1.4-2.8
		c-0.2-3.7,0.4-4.3,4.2-4.4C84.8,153.8,85.6,153.8,86.6,153.8z"/>
	<path fill="none" d="M70.9,123.2c-0.5,1.3-0.8,2.3-1.4,3c-0.3,0.3-1.5,0-2.1-0.3c-1-0.7-1.3-4.2-0.4-5.2c0.4-0.5,1.7-0.8,2-0.5
		C69.7,121,70.3,122.1,70.9,123.2z"/>
	<path fill="none" d="M54,123.2c-0.1,0.9-0.1,1.6-0.4,2.1c-0.2,0.5-0.7,1-1.2,1c-0.5,0.1-1.4-0.4-1.4-0.7c-0.2-1.6-0.5-3.3-0.3-4.9
		c0.1-1,1.9-1,2.5,0C53.8,121.6,53.9,122.6,54,123.2z"/>
	<path fill="none" d="M56.6,126c0.2-0.9,0.5-1.9,0.7-2.9c0.9,0.4,1.9,0.8,2.8,1.3c0.4,0.3,0.7,0.9,1,1.4c-0.6,0.1-1.2,0.3-1.8,0.3
		C58.4,126.1,57.5,126,56.6,126C56.5,125.9,56.6,126,56.6,126z"/>
</g>
</svg>
