<?xml version="1.0" encoding="iso-8859-1"?>
<!-- Generator: Adobe Illustrator 19.0.0, SVG Export Plug-In . SVG Version: 6.00 Build 0)  -->
<svg version="1.1" id="Capa_1" xmlns="http://www.w3.org/2000/svg" xmlns:xlink="http://www.w3.org/1999/xlink" x="0px" y="0px"
	 viewBox="0 0 512 512" style="enable-background:new 0 0 512 512;" xml:space="preserve">
<path style="fill:#C6E8FF;" d="M256,22.5v467c128.958,0,233.5-104.542,233.5-233.5S384.958,22.5,256,22.5z"/>
<path style="fill:#FFFFFF;" d="M434.5,256c0-115.151-79.917-208.5-178.5-208.5v-25C127.042,22.5,22.5,127.042,22.5,256
	S127.042,489.5,256,489.5v-25C354.583,464.5,434.5,371.151,434.5,256z"/>
<polygon style="fill:#3B4145;" points="347,136.715 347,350.5 287,380.5 287,128.5 "/>
<polygon style="fill:#525A61;" points="317,128.5 317,380.5 165,350.5 165,136.715 "/>
<g>
	<path style="fill:#BFD2E0;" d="M317,350.5l-30,60h30c16.5,0,30-13.5,30-30v-30H317z"/>
	<path style="fill:#BFD2E0;" d="M317,101.5h-30l30,35.215h30V131.5C347,115,333.5,101.5,317,101.5z"/>
</g>
<g>
	<path style="fill:#DEF1FF;" d="M317,350.5v30c0,16.5-13.5,30-30,30h-92c-16.5,0-30-13.5-30-30v-30H317z"/>
	<path style="fill:#DEF1FF;" d="M317,131.5v5.215H165V131.5c0-16.5,13.5-30,30-30h92C303.5,101.5,317,115,317,131.5z"/>
</g>
<path style="fill:#FF5440;" d="M256,7.5C118.757,7.5,7.5,118.757,7.5,256S118.757,504.5,256,504.5S504.5,393.243,504.5,256
	S393.243,7.5,256,7.5z M47.5,256c0-115.151,93.349-208.5,208.5-208.5c50.373,0,96.574,17.864,132.614,47.602L95.102,388.614
	C65.364,352.574,47.5,306.373,47.5,256z M256,464.5c-50.373,0-96.574-17.864-132.614-47.602l293.512-293.512
	C446.636,159.426,464.5,205.627,464.5,256C464.5,371.151,371.151,464.5,256,464.5z"/>
<path d="M170.345,323.977l223.572-223.571c1.494-1.495,2.289-3.551,2.188-5.662c-0.101-2.11-1.088-4.081-2.718-5.427
	C354.847,57.515,306.055,40,256,40c-51.942,0-102.144,18.706-141.356,52.673c-3.131,2.712-3.47,7.448-0.758,10.579
	s7.447,3.47,10.58,0.759C160.952,72.405,207.665,55,256,55c43.813,0,86.584,14.418,121.353,40.756l-24.557,24.558
	C348.025,105.082,333.783,94,317,94H195c-20.678,0-37.5,16.822-37.5,37.5v184.108l-61.744,61.744C69.418,342.584,55,299.813,55,256
	c0-48.335,17.405-95.048,49.01-131.535c2.712-3.131,2.373-7.867-0.758-10.579c-3.132-2.712-7.868-2.373-10.58,0.759
	C58.706,153.857,40,204.059,40,256c0,50.055,17.515,98.846,49.317,137.387c1.345,1.63,3.315,2.617,5.427,2.718
	c0.12,0.006,0.239,0.009,0.358,0.009c1.984,0,3.893-0.787,5.303-2.196l69.852-69.852
	C170.287,324.036,170.316,324.007,170.345,323.977z M195,109h122c11.635,0,21.236,8.878,22.385,20.215h-166.77
	C173.764,117.878,183.365,109,195,109z M172.5,144.215h156.394L172.5,300.608V144.215z"/>
<path d="M422.684,118.613c-1.346-1.63-3.316-2.617-5.427-2.718c-2.121-0.1-4.167,0.693-5.662,2.188l-69.806,69.806
	c-0.06,0.059-0.119,0.117-0.176,0.177L159.758,369.92c-0.04,0.039-0.079,0.078-0.117,0.117l-41.557,41.558
	c-1.495,1.495-2.289,3.551-2.188,5.662c0.101,2.11,1.088,4.081,2.718,5.427C157.154,454.485,205.945,472,256,472
	c57.695,0,111.938-22.468,152.735-63.265S472,313.695,472,256C472,205.945,454.485,157.153,422.684,118.613z M172.5,378.392
	L192.892,358H339.5v22.5c0,12.406-10.094,22.5-22.5,22.5H195c-12.407,0-22.5-10.094-22.5-22.5V378.392z M339.5,343H207.892
	L339.5,211.392V343z M256,457c-43.813,0-86.584-14.418-121.352-40.756l24.557-24.557C163.975,406.918,178.217,418,195,418h122
	c20.678,0,37.5-16.822,37.5-37.5V196.392l61.744-61.744C442.582,169.416,457,212.188,457,256C457,366.832,366.832,457,256,457z"/>
<path d="M437.02,74.98C388.667,26.629,324.38,0,256,0S123.333,26.629,74.98,74.98C26.629,123.333,0,187.62,0,256
	s26.629,132.667,74.98,181.02C123.333,485.371,187.62,512,256,512s132.667-26.629,181.02-74.98C485.371,388.667,512,324.38,512,256
	S485.371,123.333,437.02,74.98z M256,497C123.112,497,15,388.888,15,256S123.112,15,256,15s241,108.112,241,241S388.888,497,256,497
	z"/>
<g>
</g>
<g>
</g>
<g>
</g>
<g>
</g>
<g>
</g>
<g>
</g>
<g>
</g>
<g>
</g>
<g>
</g>
<g>
</g>
<g>
</g>
<g>
</g>
<g>
</g>
<g>
</g>
<g>
</g>
</svg>
